<svg width="30" height="30" viewBox="0 0 30 30" fill="none" xmlns="http://www.w3.org/2000/svg">
<g clip-path="url(#clip0_464_2426)">
<path d="M14.9834 10.0437C12.2552 10.0437 10.0439 12.2553 10.0439 14.9832C10.0439 17.7111 12.2555 19.9223 14.9831 19.9226C17.7113 19.9226 19.9229 17.7111 19.9229 14.9832C19.9229 12.2553 17.7113 10.044 14.9834 10.0437Z" fill="currentColor"/>
<path d="M29.7125 8.87371C29.6404 7.29638 29.3898 6.21925 29.0236 5.2768C28.6515 4.28792 28.0683 3.39223 27.3146 2.65197C26.5746 1.89821 25.6786 1.31437 24.6898 0.942265C23.7473 0.576416 22.6702 0.32615 21.0928 0.254364C19.5125 0.182248 19.0077 0.164795 14.9834 0.164795C10.9591 0.164795 10.4542 0.182248 8.87395 0.254034C7.29662 0.32615 6.21949 0.576745 5.27704 0.942923C4.28817 1.31503 3.39248 1.89821 2.65222 2.65197C1.89846 3.3919 1.31461 4.28759 0.942509 5.27647C0.57666 6.21925 0.326395 7.29638 0.254608 8.87338C0.182163 10.454 0.165039 10.9588 0.165039 14.9832C0.165039 19.0078 0.182163 19.5126 0.254608 21.0929C0.326395 22.6699 0.576989 23.7474 0.943497 24.6898C1.3156 25.6784 1.89879 26.5744 2.65255 27.3143C3.39248 28.0681 4.28849 28.6516 5.27737 29.0234C6.21982 29.3899 7.29695 29.6402 8.87428 29.7123C10.4546 29.7844 10.9594 29.8015 14.9837 29.8015C19.0081 29.8015 19.5129 29.7847 21.0932 29.7123C22.6705 29.6402 23.7476 29.3899 24.6901 29.0234C26.6807 28.2538 28.2541 26.6801 29.0236 24.6898C29.3901 23.7471 29.6404 22.6699 29.7125 21.0929C29.7846 19.5123 29.8018 19.0075 29.8018 14.9832C29.8018 10.9588 29.7846 10.454 29.7125 8.87371ZM14.9831 22.5925C10.7806 22.5925 7.37368 19.1856 7.37368 14.9832C7.37368 10.7807 10.7806 7.37376 14.9831 7.37376C19.1859 7.37376 22.5925 10.7807 22.5925 14.9832C22.5925 19.1856 19.1859 22.5925 14.9831 22.5925ZM22.8934 8.85132C21.9111 8.85132 21.1152 8.05508 21.1152 7.07311C21.1152 6.09082 21.9115 5.29491 22.8934 5.29491C23.8754 5.29491 24.6716 6.09115 24.6716 7.07311C24.6716 8.05508 23.8754 8.85132 22.8934 8.85132Z" fill="currentColor"/>
</g>
<defs>
<clipPath id="clip0_464_2426">
<rect width="30" height="30" fill="white"/>
</clipPath>
</defs>
</svg>
