<svg width="20" height="20" viewBox="0 0 20 20" fill="none" xmlns="http://www.w3.org/2000/svg">
<path fill-rule="evenodd" clip-rule="evenodd" d="M10.708 19.7057C10.6151 19.799 10.5047 19.873 10.3831 19.9235C10.2615 19.974 10.1312 20 9.9995 20C9.86785 20 9.73749 19.974 9.61591 19.9235C9.49432 19.873 9.38391 19.799 9.291 19.7057L9.285 19.6987L9.268 19.6817L9.206 19.6187C8.85349 19.2556 8.50678 18.8869 8.166 18.5127C7.3104 17.5752 6.49113 16.6052 5.71 15.6048C4.818 14.4548 3.906 13.1548 3.213 11.8708C2.535 10.6118 2 9.24787 2 7.99988C2 3.46095 5.592 0 10 0C14.408 0 18 3.46095 18 7.99988C18 9.24787 17.465 10.6118 16.787 11.8698C16.094 13.1558 15.183 14.4548 14.29 15.6048C13.1974 17.0044 12.0304 18.3443 10.794 19.6187L10.732 19.6817L10.715 19.6987L10.708 19.7057ZM10 10.9998C10.7956 10.9998 11.5587 10.6838 12.1213 10.1212C12.6839 9.55857 13 8.79552 13 7.99988C13 7.20425 12.6839 6.4412 12.1213 5.87859C11.5587 5.31599 10.7956 4.99993 10 4.99993C9.20435 4.99993 8.44129 5.31599 7.87868 5.87859C7.31607 6.4412 7 7.20425 7 7.99988C7 8.79552 7.31607 9.55857 7.87868 10.1212C8.44129 10.6838 9.20435 10.9998 10 10.9998Z" fill="currentColor"/>
</svg>
