<svg width="20" height="20" viewBox="0 0 20 20" fill="none" xmlns="http://www.w3.org/2000/svg">
<path d="M16.8466 5.3458L16.7366 4.7908C16.6375 4.29247 16.4133 3.82163 15.9025 3.64163C15.7383 3.58413 15.5525 3.55997 15.4275 3.4408C15.3008 3.32163 15.2641 3.1358 15.235 2.96413C15.1808 2.64913 15.1308 2.33413 15.075 2.01997C15.0275 1.74913 14.99 1.44497 14.8666 1.19747C14.7041 0.864134 14.3691 0.669134 14.0366 0.540801C13.866 0.476991 13.6918 0.423014 13.515 0.379134C12.6816 0.159967 11.8066 0.0791341 10.9508 0.0324674C9.9231 -0.0240377 8.89268 -0.00677122 7.86746 0.0841341C7.10496 0.153301 6.3008 0.237467 5.5758 0.500801C5.3108 0.597467 5.03746 0.714134 4.8358 0.918301C4.5883 1.16997 4.5083 1.55997 4.6883 1.8733C4.81663 2.0958 5.03413 2.2533 5.26496 2.35663C5.56496 2.49163 5.87913 2.5933 6.2008 2.66163C7.09663 2.85997 8.02496 2.93747 8.93996 2.96997C9.95496 3.01163 10.9708 2.9783 11.9816 2.87163C12.2308 2.84413 12.48 2.8108 12.7283 2.77247C13.0216 2.72747 13.21 2.34497 13.1233 2.07747C13.02 1.7583 12.7425 1.63497 12.4283 1.6833C12.04 1.74497 11.6283 1.7733 11.2766 1.80497C10.2958 1.87163 9.31163 1.8733 8.32996 1.80997C8.00785 1.78865 7.68635 1.75892 7.3658 1.7208C7.29413 1.71247 7.2158 1.69997 7.1508 1.6908C6.9483 1.6608 6.74746 1.62413 6.54746 1.58247C6.45496 1.55997 6.45496 1.4283 6.54746 1.4058H6.55163C6.78246 1.3558 7.0158 1.3158 7.24996 1.2833H7.25163C7.3608 1.2758 7.4708 1.25663 7.57996 1.2433C8.52823 1.14488 9.48213 1.11147 10.435 1.1433C10.9966 1.15913 11.5575 1.19913 12.1158 1.2633L12.3058 1.28913C12.5283 1.32247 12.75 1.36247 12.9708 1.40997C13.2975 1.4808 13.7166 1.50413 13.8625 1.86163C13.9083 1.9758 13.9291 2.10163 13.955 2.2208L14.2208 3.45747C14.2264 3.48398 14.2266 3.51138 14.2211 3.53794C14.2157 3.5645 14.2049 3.58967 14.1894 3.61187C14.1738 3.63407 14.1538 3.65283 14.1307 3.66699C14.1076 3.68114 14.0818 3.69038 14.055 3.69413H14.0525C14.0216 3.69913 13.99 3.70247 13.9591 3.70663C12.6483 3.87387 11.3281 3.95599 10.0066 3.95247C8.6973 3.95112 7.38938 3.8665 6.0908 3.69913C5.97413 3.68497 5.84663 3.66413 5.7433 3.64913C5.47163 3.60913 5.20246 3.55913 4.93246 3.51497C4.60496 3.4608 4.29246 3.4883 3.99663 3.64913C3.75496 3.78247 3.55746 3.9858 3.43413 4.2333C3.3058 4.49663 3.2683 4.7833 3.21163 5.06663C3.15413 5.34997 3.06496 5.6558 3.09913 5.94663C3.17163 6.57413 3.60996 7.08413 4.2408 7.1983C7.36035 7.75502 10.5437 7.86054 13.6933 7.51163C13.7531 7.50482 13.8137 7.51153 13.8706 7.53126C13.9275 7.55098 13.9793 7.58323 14.0221 7.62561C14.0649 7.66799 14.0976 7.71944 14.1178 7.77615C14.1381 7.83287 14.1454 7.8934 14.1391 7.9533L14.08 8.53413L13.2316 16.79C13.1975 17.1316 13.1925 17.4833 13.1275 17.8208C13.0258 18.3516 12.6666 18.6775 12.1425 18.7966C11.6616 18.9058 11.1716 18.9633 10.6791 18.9675C10.1325 18.9708 9.58746 18.9466 9.0408 18.9491C8.4583 18.9525 7.74413 18.8991 7.29496 18.4658C6.89913 18.0841 6.84496 17.4875 6.7908 16.9716L6.18163 11.1275L5.9133 8.54913C5.88246 8.25663 5.67496 7.96997 5.3483 7.98413C5.0683 7.99663 4.74996 8.23413 4.7833 8.54997L4.9733 10.3708L5.76413 17.9641C5.88663 19.0841 6.74246 19.6875 7.80246 19.8575C8.4208 19.9575 9.05496 19.9775 9.6833 19.9875C10.4883 20.0008 11.3016 20.0316 12.0933 19.8858C13.2666 19.6708 14.1475 18.8875 14.2733 17.6716C14.5566 14.895 14.8425 12.1191 15.1266 9.34247L15.3058 7.6033C15.3146 7.51706 15.351 7.43595 15.4095 7.37201C15.4681 7.30807 15.5457 7.26469 15.6308 7.2483C15.9658 7.1833 16.2866 7.07163 16.5258 6.81663C16.905 6.40997 16.9808 5.8808 16.8466 5.3458ZM15.615 5.98913C15.4941 6.1033 15.3125 6.15663 15.1333 6.1833C13.12 6.48247 11.0783 6.6333 9.0433 6.56663C7.58663 6.51663 6.1458 6.35497 4.70413 6.15163C4.56246 6.13163 4.40996 6.1058 4.31246 6.00163C4.12913 5.80497 4.21996 5.40997 4.26746 5.17247C4.3108 4.9558 4.39413 4.66497 4.6533 4.63413C5.05663 4.58663 5.52496 4.75747 5.92496 4.81747C6.4058 4.8908 6.8883 4.94997 7.37246 4.99413C9.43913 5.18247 11.5408 5.15247 13.5991 4.87747C13.9741 4.82747 14.3483 4.76913 14.72 4.70247C15.0525 4.64247 15.42 4.5308 15.62 4.87413C15.7583 5.1083 15.7766 5.42163 15.755 5.6858C15.7484 5.80116 15.698 5.90967 15.6141 5.98913H15.615ZM10.4825 9.23913C9.76413 9.54747 8.94913 9.8958 7.89163 9.8958C7.44964 9.89473 7.00982 9.8339 6.58413 9.71497L7.31496 17.2183C7.36913 17.8683 7.91246 18.3683 8.56496 18.3683C8.56496 18.3683 9.6008 18.4225 9.94663 18.4225C10.3191 18.4225 11.435 18.3683 11.435 18.3683C12.0875 18.3683 12.63 17.8683 12.6841 17.2183L13.4675 8.92663C13.1141 8.79883 12.7416 8.73177 12.3658 8.7283C11.6775 8.7283 11.1233 8.96497 10.4825 9.23913Z" fill="currentColor"/>
</svg>
