<svg width="20" height="20" viewBox="0 0 20 20" fill="none" xmlns="http://www.w3.org/2000/svg">
<g clip-path="url(#clip0_478_2441)">
<path d="M8.6253 11.3522L11.0129 13.7398C11.2267 13.9537 11.5554 14.002 11.8217 13.8591L14.683 12.323C14.8947 12.2093 15.1504 12.2148 15.357 12.3375L19.5318 14.8149C19.8297 14.9916 19.9496 15.3613 19.8102 15.6783C19.4535 16.4901 18.8041 17.9781 18.5461 18.6361C18.4919 18.7746 18.4111 18.9015 18.2987 18.9987C15.5164 21.4105 9.98069 18.4718 5.74351 14.2347C1.50568 9.99728 -1.43296 4.46158 0.978807 1.67924C1.07628 1.56684 1.20317 1.48605 1.34147 1.43183C1.99919 1.17388 3.48739 0.524504 4.29922 0.167766C4.61622 0.0283636 4.98591 0.148228 5.16263 0.446132L7.64004 4.62096C7.76254 4.82754 7.76803 5.08329 7.65453 5.29492L6.11847 8.15585C5.97556 8.42214 6.02385 8.75078 6.23768 8.9646L8.6253 11.3522Z" fill="currentColor"/>
<path d="M19.8678 10.9767H17.892C17.892 6.07409 13.9035 2.08564 9.00098 2.08564V0.109863C14.9929 0.109863 19.8678 4.98477 19.8678 10.9767Z" fill="currentColor"/>
<path d="M16.026 10.9767H14.0502C14.0502 8.19256 11.7853 5.92744 9.00098 5.92744V3.95166C12.8746 3.95166 16.026 7.10303 16.026 10.9767Z" fill="currentColor"/>
</g>
<defs>
<clipPath id="clip0_478_2441">
<rect width="20" height="20" fill="white"/>
</clipPath>
</defs>
</svg>
