<svg width="30" height="30" viewBox="0 0 30 30" fill="none" xmlns="http://www.w3.org/2000/svg">
<g clip-path="url(#clip0_410_1727)">
<path d="M27.6976 8.86875C27.5482 8.31379 27.2557 7.80779 26.8493 7.40141C26.4429 6.99502 25.9369 6.7025 25.382 6.55313C23.3382 6 15.1257 6 15.1257 6C15.1257 6 6.91321 6 4.86946 6.55313C4.31449 6.7025 3.8085 6.99502 3.40211 7.40141C2.99573 7.80779 2.70321 8.31379 2.55383 8.86875C2.17222 10.9531 1.98703 13.0686 2.00071 15.1875C1.98703 17.3064 2.17222 19.4219 2.55383 21.5063C2.70321 22.0612 2.99573 22.5672 3.40211 22.9736C3.8085 23.38 4.31449 23.6725 4.86946 23.8219C6.91321 24.375 15.1257 24.375 15.1257 24.375C15.1257 24.375 23.3382 24.375 25.382 23.8219C25.9369 23.6725 26.4429 23.38 26.8493 22.9736C27.2557 22.5672 27.5482 22.0612 27.6976 21.5063C28.0792 19.4219 28.2644 17.3064 28.2507 15.1875C28.2644 13.0686 28.0792 10.9531 27.6976 8.86875ZM12.5007 19.125V11.25L19.3163 15.1875L12.5007 19.125Z" fill="currentColor"/>
</g>
<defs>
<clipPath id="clip0_410_1727">
<rect width="30" height="30" fill="white"/>
</clipPath>
</defs>
</svg>
