<svg width="30" height="30" viewBox="0 0 30 30" fill="none" xmlns="http://www.w3.org/2000/svg">
<g clip-path="url(#clip0_392_496)">
<path fill-rule="evenodd" clip-rule="evenodd" d="M9.64286 2.14286C9.64286 0.959389 8.68346 0 7.5 0C6.31654 0 5.35714 0.959389 5.35714 2.14286V4.28571H3.21429C1.43908 4.28571 0 5.72479 0 7.5V10.7143H30V7.5C30 5.72479 28.5609 4.28571 26.7857 4.28571H24.6431V2.14286C24.6431 0.959389 23.6837 0 22.5002 0C21.3167 0 20.3573 0.959389 20.3573 2.14286V4.28571H9.64286V2.14286ZM30 13.3929H0V26.7857C0 28.5609 1.43908 30 3.21429 30H26.7857C28.5609 30 30 28.5609 30 26.7857V13.3929Z" fill="currentColor"/>
</g>
<defs>
<clipPath id="clip0_392_496">
<rect width="30" height="30" fill="white"/>
</clipPath>
</defs>
</svg>
