<svg width="30" height="30" viewBox="0 0 30 30" fill="none" xmlns="http://www.w3.org/2000/svg">
<path fill-rule="evenodd" clip-rule="evenodd" d="M22.5 3H26.25C27.45 3 28.5 4.05 28.5 5.25V27.75C28.5 28.95 27.45 30 26.25 30H3.75C2.55 30 1.5 28.95 1.5 27.75V5.25C1.5 4.05 2.55 3 3.75 3H6V1.5C6 1.10218 6.15804 0.720644 6.43934 0.43934C6.72064 0.158035 7.10218 0 7.5 0C7.89782 0 8.27936 0.158035 8.56066 0.43934C8.84196 0.720644 9 1.10218 9 1.5V3H19.5V1.5C19.5 1.10218 19.658 0.720644 19.9393 0.43934C20.2206 0.158035 20.6022 0 21 0C21.3978 0 21.7794 0.158035 22.0607 0.43934C22.342 0.720644 22.5 1.10218 22.5 1.5V3ZM25.5 27H4.5V12H25.5V27ZM18.4395 15.4395L13.5 20.379L11.5605 18.4395C11.3504 18.2305 11.0833 18.0884 10.7926 18.0309C10.5019 17.9735 10.2007 18.0033 9.92694 18.1167C9.65318 18.2301 9.41909 18.4219 9.25415 18.6681C9.0892 18.9142 9.00078 19.2037 9 19.5C9.00008 19.8978 9.15818 20.2793 9.4395 20.5605L12.4395 23.5605C12.5785 23.7003 12.7437 23.8112 12.9257 23.8869C13.1077 23.9626 13.3029 24.0016 13.5 24.0016C13.6971 24.0016 13.8923 23.9626 14.0743 23.8869C14.2563 23.8112 14.4215 23.7003 14.5605 23.5605L20.5605 17.5605C20.8337 17.2776 20.9849 16.8987 20.9815 16.5054C20.9781 16.1121 20.8203 15.7359 20.5422 15.4578C20.2641 15.1797 19.8879 15.0219 19.4946 15.0185C19.1013 15.0151 18.7224 15.1663 18.4395 15.4395Z" fill="currentColor"/>
</svg>
