<?xml version="1.0" encoding="UTF-8"?><!DOCTYPE svg PUBLIC "-//W3C//DTD SVG 1.1//EN" "http://www.w3.org/Graphics/SVG/1.1/DTD/svg11.dtd"><svg xmlns="http://www.w3.org/2000/svg" xmlns:xlink="http://www.w3.org/1999/xlink"><defs>
<clipPath id="clip0_464_2426">
<rect width="30" height="30" fill="white"/>
</clipPath>

<clipPath id="clip0_478_2441">
<rect width="20" height="20" fill="white"/>
</clipPath>

<clipPath id="clip0_392_496">
<rect width="30" height="30" fill="white"/>
</clipPath>

<clipPath id="clip0_410_1727">
<rect width="30" height="30" fill="white"/>
</clipPath>
</defs><symbol id="book-telegram" viewBox="0 0 24 24"><g fill="none">
<path fill-rule="evenodd" clip-rule="evenodd" d="M22 12C22 17.5228 17.5228 22 12 22C6.47715 22 2 17.5228 2 12C2 6.47715 6.47715 2 12 2C17.5228 2 22 6.47715 22 12ZM12.3583 9.38244C11.3857 9.787 9.44177 10.6243 6.52657 11.8944C6.05318 12.0827 5.8052 12.2669 5.78263 12.4469C5.74448 12.7513 6.12559 12.8711 6.64455 13.0343C6.71515 13.0565 6.78829 13.0795 6.86327 13.1038C7.37385 13.2698 8.06068 13.464 8.41773 13.4717C8.74161 13.4787 9.1031 13.3452 9.50219 13.0711C12.226 11.2325 13.632 10.3032 13.7202 10.2831C13.7825 10.269 13.8688 10.2512 13.9273 10.3032C13.9858 10.3552 13.98 10.4536 13.9738 10.48C13.9361 10.641 12.4401 12.0318 11.6659 12.7515C11.4246 12.9759 11.2534 13.135 11.2184 13.1714C11.14 13.2528 11.0601 13.3298 10.9833 13.4038C10.509 13.8611 10.1532 14.204 11.003 14.764C11.4114 15.0331 11.7381 15.2556 12.0641 15.4776C12.4201 15.7201 12.7752 15.9619 13.2347 16.2631C13.3517 16.3398 13.4635 16.4195 13.5724 16.4971C13.9867 16.7925 14.3589 17.0579 14.8188 17.0155C15.086 16.991 15.362 16.7397 15.5022 15.9903C15.8335 14.2193 16.4847 10.382 16.6352 8.80081C16.6484 8.66228 16.6318 8.48498 16.6185 8.40715C16.6051 8.32932 16.5773 8.21842 16.4761 8.13633C16.3563 8.03911 16.1714 8.01861 16.0886 8.02C15.7125 8.0267 15.1354 8.22735 12.3583 9.38244Z" fill="currentColor"/>
</g></symbol><symbol id="footer-donate" viewBox="0 0 20 20"><g fill="none">
<path d="M16.8466 5.3458L16.7366 4.7908C16.6375 4.29247 16.4133 3.82163 15.9025 3.64163C15.7383 3.58413 15.5525 3.55997 15.4275 3.4408C15.3008 3.32163 15.2641 3.1358 15.235 2.96413C15.1808 2.64913 15.1308 2.33413 15.075 2.01997C15.0275 1.74913 14.99 1.44497 14.8666 1.19747C14.7041 0.864134 14.3691 0.669134 14.0366 0.540801C13.866 0.476991 13.6918 0.423014 13.515 0.379134C12.6816 0.159967 11.8066 0.0791341 10.9508 0.0324674C9.9231 -0.0240377 8.89268 -0.00677122 7.86746 0.0841341C7.10496 0.153301 6.3008 0.237467 5.5758 0.500801C5.3108 0.597467 5.03746 0.714134 4.8358 0.918301C4.5883 1.16997 4.5083 1.55997 4.6883 1.8733C4.81663 2.0958 5.03413 2.2533 5.26496 2.35663C5.56496 2.49163 5.87913 2.5933 6.2008 2.66163C7.09663 2.85997 8.02496 2.93747 8.93996 2.96997C9.95496 3.01163 10.9708 2.9783 11.9816 2.87163C12.2308 2.84413 12.48 2.8108 12.7283 2.77247C13.0216 2.72747 13.21 2.34497 13.1233 2.07747C13.02 1.7583 12.7425 1.63497 12.4283 1.6833C12.04 1.74497 11.6283 1.7733 11.2766 1.80497C10.2958 1.87163 9.31163 1.8733 8.32996 1.80997C8.00785 1.78865 7.68635 1.75892 7.3658 1.7208C7.29413 1.71247 7.2158 1.69997 7.1508 1.6908C6.9483 1.6608 6.74746 1.62413 6.54746 1.58247C6.45496 1.55997 6.45496 1.4283 6.54746 1.4058H6.55163C6.78246 1.3558 7.0158 1.3158 7.24996 1.2833H7.25163C7.3608 1.2758 7.4708 1.25663 7.57996 1.2433C8.52823 1.14488 9.48213 1.11147 10.435 1.1433C10.9966 1.15913 11.5575 1.19913 12.1158 1.2633L12.3058 1.28913C12.5283 1.32247 12.75 1.36247 12.9708 1.40997C13.2975 1.4808 13.7166 1.50413 13.8625 1.86163C13.9083 1.9758 13.9291 2.10163 13.955 2.2208L14.2208 3.45747C14.2264 3.48398 14.2266 3.51138 14.2211 3.53794C14.2157 3.5645 14.2049 3.58967 14.1894 3.61187C14.1738 3.63407 14.1538 3.65283 14.1307 3.66699C14.1076 3.68114 14.0818 3.69038 14.055 3.69413H14.0525C14.0216 3.69913 13.99 3.70247 13.9591 3.70663C12.6483 3.87387 11.3281 3.95599 10.0066 3.95247C8.6973 3.95112 7.38938 3.8665 6.0908 3.69913C5.97413 3.68497 5.84663 3.66413 5.7433 3.64913C5.47163 3.60913 5.20246 3.55913 4.93246 3.51497C4.60496 3.4608 4.29246 3.4883 3.99663 3.64913C3.75496 3.78247 3.55746 3.9858 3.43413 4.2333C3.3058 4.49663 3.2683 4.7833 3.21163 5.06663C3.15413 5.34997 3.06496 5.6558 3.09913 5.94663C3.17163 6.57413 3.60996 7.08413 4.2408 7.1983C7.36035 7.75502 10.5437 7.86054 13.6933 7.51163C13.7531 7.50482 13.8137 7.51153 13.8706 7.53126C13.9275 7.55098 13.9793 7.58323 14.0221 7.62561C14.0649 7.66799 14.0976 7.71944 14.1178 7.77615C14.1381 7.83287 14.1454 7.8934 14.1391 7.9533L14.08 8.53413L13.2316 16.79C13.1975 17.1316 13.1925 17.4833 13.1275 17.8208C13.0258 18.3516 12.6666 18.6775 12.1425 18.7966C11.6616 18.9058 11.1716 18.9633 10.6791 18.9675C10.1325 18.9708 9.58746 18.9466 9.0408 18.9491C8.4583 18.9525 7.74413 18.8991 7.29496 18.4658C6.89913 18.0841 6.84496 17.4875 6.7908 16.9716L6.18163 11.1275L5.9133 8.54913C5.88246 8.25663 5.67496 7.96997 5.3483 7.98413C5.0683 7.99663 4.74996 8.23413 4.7833 8.54997L4.9733 10.3708L5.76413 17.9641C5.88663 19.0841 6.74246 19.6875 7.80246 19.8575C8.4208 19.9575 9.05496 19.9775 9.6833 19.9875C10.4883 20.0008 11.3016 20.0316 12.0933 19.8858C13.2666 19.6708 14.1475 18.8875 14.2733 17.6716C14.5566 14.895 14.8425 12.1191 15.1266 9.34247L15.3058 7.6033C15.3146 7.51706 15.351 7.43595 15.4095 7.37201C15.4681 7.30807 15.5457 7.26469 15.6308 7.2483C15.9658 7.1833 16.2866 7.07163 16.5258 6.81663C16.905 6.40997 16.9808 5.8808 16.8466 5.3458ZM15.615 5.98913C15.4941 6.1033 15.3125 6.15663 15.1333 6.1833C13.12 6.48247 11.0783 6.6333 9.0433 6.56663C7.58663 6.51663 6.1458 6.35497 4.70413 6.15163C4.56246 6.13163 4.40996 6.1058 4.31246 6.00163C4.12913 5.80497 4.21996 5.40997 4.26746 5.17247C4.3108 4.9558 4.39413 4.66497 4.6533 4.63413C5.05663 4.58663 5.52496 4.75747 5.92496 4.81747C6.4058 4.8908 6.8883 4.94997 7.37246 4.99413C9.43913 5.18247 11.5408 5.15247 13.5991 4.87747C13.9741 4.82747 14.3483 4.76913 14.72 4.70247C15.0525 4.64247 15.42 4.5308 15.62 4.87413C15.7583 5.1083 15.7766 5.42163 15.755 5.6858C15.7484 5.80116 15.698 5.90967 15.6141 5.98913H15.615ZM10.4825 9.23913C9.76413 9.54747 8.94913 9.8958 7.89163 9.8958C7.44964 9.89473 7.00982 9.8339 6.58413 9.71497L7.31496 17.2183C7.36913 17.8683 7.91246 18.3683 8.56496 18.3683C8.56496 18.3683 9.6008 18.4225 9.94663 18.4225C10.3191 18.4225 11.435 18.3683 11.435 18.3683C12.0875 18.3683 12.63 17.8683 12.6841 17.2183L13.4675 8.92663C13.1141 8.79883 12.7416 8.73177 12.3658 8.7283C11.6775 8.7283 11.1233 8.96497 10.4825 9.23913Z" fill="currentColor"/>
</g></symbol><symbol id="footer-geo" viewBox="0 0 20 20"><g fill="none">
<path fill-rule="evenodd" clip-rule="evenodd" d="M10.708 19.7057C10.6151 19.799 10.5047 19.873 10.3831 19.9235C10.2615 19.974 10.1312 20 9.9995 20C9.86785 20 9.73749 19.974 9.61591 19.9235C9.49432 19.873 9.38391 19.799 9.291 19.7057L9.285 19.6987L9.268 19.6817L9.206 19.6187C8.85349 19.2556 8.50678 18.8869 8.166 18.5127C7.3104 17.5752 6.49113 16.6052 5.71 15.6048C4.818 14.4548 3.906 13.1548 3.213 11.8708C2.535 10.6118 2 9.24787 2 7.99988C2 3.46095 5.592 0 10 0C14.408 0 18 3.46095 18 7.99988C18 9.24787 17.465 10.6118 16.787 11.8698C16.094 13.1558 15.183 14.4548 14.29 15.6048C13.1974 17.0044 12.0304 18.3443 10.794 19.6187L10.732 19.6817L10.715 19.6987L10.708 19.7057ZM10 10.9998C10.7956 10.9998 11.5587 10.6838 12.1213 10.1212C12.6839 9.55857 13 8.79552 13 7.99988C13 7.20425 12.6839 6.4412 12.1213 5.87859C11.5587 5.31599 10.7956 4.99993 10 4.99993C9.20435 4.99993 8.44129 5.31599 7.87868 5.87859C7.31607 6.4412 7 7.20425 7 7.99988C7 8.79552 7.31607 9.55857 7.87868 10.1212C8.44129 10.6838 9.20435 10.9998 10 10.9998Z" fill="currentColor"/>
</g></symbol><symbol id="footer-instagram" viewBox="0 0 30 30"><g fill="none">
<g clip-path="url(#clip0_464_2426)">
<path d="M14.9834 10.0437C12.2552 10.0437 10.0439 12.2553 10.0439 14.9832C10.0439 17.7111 12.2555 19.9223 14.9831 19.9226C17.7113 19.9226 19.9229 17.7111 19.9229 14.9832C19.9229 12.2553 17.7113 10.044 14.9834 10.0437Z" fill="currentColor"/>
<path d="M29.7125 8.87371C29.6404 7.29638 29.3898 6.21925 29.0236 5.2768C28.6515 4.28792 28.0683 3.39223 27.3146 2.65197C26.5746 1.89821 25.6786 1.31437 24.6898 0.942265C23.7473 0.576416 22.6702 0.32615 21.0928 0.254364C19.5125 0.182248 19.0077 0.164795 14.9834 0.164795C10.9591 0.164795 10.4542 0.182248 8.87395 0.254034C7.29662 0.32615 6.21949 0.576745 5.27704 0.942923C4.28817 1.31503 3.39248 1.89821 2.65222 2.65197C1.89846 3.3919 1.31461 4.28759 0.942509 5.27647C0.57666 6.21925 0.326395 7.29638 0.254608 8.87338C0.182163 10.454 0.165039 10.9588 0.165039 14.9832C0.165039 19.0078 0.182163 19.5126 0.254608 21.0929C0.326395 22.6699 0.576989 23.7474 0.943497 24.6898C1.3156 25.6784 1.89879 26.5744 2.65255 27.3143C3.39248 28.0681 4.28849 28.6516 5.27737 29.0234C6.21982 29.3899 7.29695 29.6402 8.87428 29.7123C10.4546 29.7844 10.9594 29.8015 14.9837 29.8015C19.0081 29.8015 19.5129 29.7847 21.0932 29.7123C22.6705 29.6402 23.7476 29.3899 24.6901 29.0234C26.6807 28.2538 28.2541 26.6801 29.0236 24.6898C29.3901 23.7471 29.6404 22.6699 29.7125 21.0929C29.7846 19.5123 29.8018 19.0075 29.8018 14.9832C29.8018 10.9588 29.7846 10.454 29.7125 8.87371ZM14.9831 22.5925C10.7806 22.5925 7.37368 19.1856 7.37368 14.9832C7.37368 10.7807 10.7806 7.37376 14.9831 7.37376C19.1859 7.37376 22.5925 10.7807 22.5925 14.9832C22.5925 19.1856 19.1859 22.5925 14.9831 22.5925ZM22.8934 8.85132C21.9111 8.85132 21.1152 8.05508 21.1152 7.07311C21.1152 6.09082 21.9115 5.29491 22.8934 5.29491C23.8754 5.29491 24.6716 6.09115 24.6716 7.07311C24.6716 8.05508 23.8754 8.85132 22.8934 8.85132Z" fill="currentColor"/>
</g>

</g></symbol><symbol id="footer-phone" viewBox="0 0 20 20"><g fill="none">
<g clip-path="url(#clip0_478_2441)">
<path d="M8.6253 11.3522L11.0129 13.7398C11.2267 13.9537 11.5554 14.002 11.8217 13.8591L14.683 12.323C14.8947 12.2093 15.1504 12.2148 15.357 12.3375L19.5318 14.8149C19.8297 14.9916 19.9496 15.3613 19.8102 15.6783C19.4535 16.4901 18.8041 17.9781 18.5461 18.6361C18.4919 18.7746 18.4111 18.9015 18.2987 18.9987C15.5164 21.4105 9.98069 18.4718 5.74351 14.2347C1.50568 9.99728 -1.43296 4.46158 0.978807 1.67924C1.07628 1.56684 1.20317 1.48605 1.34147 1.43183C1.99919 1.17388 3.48739 0.524504 4.29922 0.167766C4.61622 0.0283636 4.98591 0.148228 5.16263 0.446132L7.64004 4.62096C7.76254 4.82754 7.76803 5.08329 7.65453 5.29492L6.11847 8.15585C5.97556 8.42214 6.02385 8.75078 6.23768 8.9646L8.6253 11.3522Z" fill="currentColor"/>
<path d="M19.8678 10.9767H17.892C17.892 6.07409 13.9035 2.08564 9.00098 2.08564V0.109863C14.9929 0.109863 19.8678 4.98477 19.8678 10.9767Z" fill="currentColor"/>
<path d="M16.026 10.9767H14.0502C14.0502 8.19256 11.7853 5.92744 9.00098 5.92744V3.95166C12.8746 3.95166 16.026 7.10303 16.026 10.9767Z" fill="currentColor"/>
</g>

</g></symbol><symbol id="main-booking" viewBox="0 0 30 30"><g fill="none">
<path fill-rule="evenodd" clip-rule="evenodd" d="M22.5 3H26.25C27.45 3 28.5 4.05 28.5 5.25V27.75C28.5 28.95 27.45 30 26.25 30H3.75C2.55 30 1.5 28.95 1.5 27.75V5.25C1.5 4.05 2.55 3 3.75 3H6V1.5C6 1.10218 6.15804 0.720644 6.43934 0.43934C6.72064 0.158035 7.10218 0 7.5 0C7.89782 0 8.27936 0.158035 8.56066 0.43934C8.84196 0.720644 9 1.10218 9 1.5V3H19.5V1.5C19.5 1.10218 19.658 0.720644 19.9393 0.43934C20.2206 0.158035 20.6022 0 21 0C21.3978 0 21.7794 0.158035 22.0607 0.43934C22.342 0.720644 22.5 1.10218 22.5 1.5V3ZM25.5 27H4.5V12H25.5V27ZM18.4395 15.4395L13.5 20.379L11.5605 18.4395C11.3504 18.2305 11.0833 18.0884 10.7926 18.0309C10.5019 17.9735 10.2007 18.0033 9.92694 18.1167C9.65318 18.2301 9.41909 18.4219 9.25415 18.6681C9.0892 18.9142 9.00078 19.2037 9 19.5C9.00008 19.8978 9.15818 20.2793 9.4395 20.5605L12.4395 23.5605C12.5785 23.7003 12.7437 23.8112 12.9257 23.8869C13.1077 23.9626 13.3029 24.0016 13.5 24.0016C13.6971 24.0016 13.8923 23.9626 14.0743 23.8869C14.2563 23.8112 14.4215 23.7003 14.5605 23.5605L20.5605 17.5605C20.8337 17.2776 20.9849 16.8987 20.9815 16.5054C20.9781 16.1121 20.8203 15.7359 20.5422 15.4578C20.2641 15.1797 19.8879 15.0219 19.4946 15.0185C19.1013 15.0151 18.7224 15.1663 18.4395 15.4395Z" fill="currentColor"/>
</g></symbol><symbol id="main-calendar" viewBox="0 0 30 30"><g fill="none">
<g clip-path="url(#clip0_392_496)">
<path fill-rule="evenodd" clip-rule="evenodd" d="M9.64286 2.14286C9.64286 0.959389 8.68346 0 7.5 0C6.31654 0 5.35714 0.959389 5.35714 2.14286V4.28571H3.21429C1.43908 4.28571 0 5.72479 0 7.5V10.7143H30V7.5C30 5.72479 28.5609 4.28571 26.7857 4.28571H24.6431V2.14286C24.6431 0.959389 23.6837 0 22.5002 0C21.3167 0 20.3573 0.959389 20.3573 2.14286V4.28571H9.64286V2.14286ZM30 13.3929H0V26.7857C0 28.5609 1.43908 30 3.21429 30H26.7857C28.5609 30 30 28.5609 30 26.7857V13.3929Z" fill="currentColor"/>
</g>

</g></symbol><symbol id="main-youtube" viewBox="0 0 30 30"><g fill="none">
<g clip-path="url(#clip0_410_1727)">
<path d="M27.6976 8.86875C27.5482 8.31379 27.2557 7.80779 26.8493 7.40141C26.4429 6.99502 25.9369 6.7025 25.382 6.55313C23.3382 6 15.1257 6 15.1257 6C15.1257 6 6.91321 6 4.86946 6.55313C4.31449 6.7025 3.8085 6.99502 3.40211 7.40141C2.99573 7.80779 2.70321 8.31379 2.55383 8.86875C2.17222 10.9531 1.98703 13.0686 2.00071 15.1875C1.98703 17.3064 2.17222 19.4219 2.55383 21.5063C2.70321 22.0612 2.99573 22.5672 3.40211 22.9736C3.8085 23.38 4.31449 23.6725 4.86946 23.8219C6.91321 24.375 15.1257 24.375 15.1257 24.375C15.1257 24.375 23.3382 24.375 25.382 23.8219C25.9369 23.6725 26.4429 23.38 26.8493 22.9736C27.2557 22.5672 27.5482 22.0612 27.6976 21.5063C28.0792 19.4219 28.2644 17.3064 28.2507 15.1875C28.2644 13.0686 28.0792 10.9531 27.6976 8.86875ZM12.5007 19.125V11.25L19.3163 15.1875L12.5007 19.125Z" fill="currentColor"/>
</g>

</g></symbol></svg>