<svg width="133" height="102" fill="none" xmlns="http://www.w3.org/2000/svg"><path d="M65.814 46.542c-1.64.588-2.828 2.112-2.828 3.96 0 2.348 1.89 4.259 4.227 4.259 2.337 0 4.168-1.856 4.226-4.153" stroke="#000" stroke-miterlimit="10"/><path d="M65.573 50.507c0-.913.738-1.651 1.645-1.651.908 0 1.645.74 1.645 1.651a1.65 1.65 0 01-1.645 1.651 1.65 1.65 0 01-1.645-1.65z" fill="#000"/><path d="M65.573 50.507c0-.913.738-1.651 1.645-1.651.908 0 1.645.74 1.645 1.651a1.65 1.65 0 01-1.645 1.651 1.65 1.65 0 01-1.645-1.65z" stroke="#030505" stroke-width=".03" stroke-miterlimit="10"/><path d="M113.623 64.726c-3.061 13.064-11.576 24.323-23.442 30.672 12.113-6.26 21.36-17.303 25.274-30.643-.21.023-.42.133-.626.136-.428.005-.821-.075-1.206-.165zm-76.402-2.735c-.783.825-1.639 1.554-2.546 2.06-2.245 1.263-4.623 1.275-6.713-.284-.669-.499-1.2-1.01-1.593-1.568-1.108 2.585-3.428 4.772-6.207 6.006C27.313 87.343 45.648 101 67.212 101c2.311 0 4.574-.205 6.802-.507a46.565 46.565 0 01-14.304-.45c4.528.588 9.208.545 13.948-.239 19.4-3.213 34.05-17.732 38.549-35.723a3.495 3.495 0 01-.982-1.075c-.111.152-.209.305-.373.45-.761.668-1.691 1.224-2.472 1.584-4.229 15.36-16.824 27.698-33.52 30.464-4.975.825-9.856.686-14.541-.193 4.08.53 8.294.499 12.564-.21 16.525-2.738 29.152-14.626 33.921-29.611a4.498 4.498 0 01-2.874-.628c-4.106 13.357-15.271 23.982-29.948 26.415-4.49.743-8.9.616-13.129-.179 3.68.478 7.49.444 11.34-.193 14.965-2.478 26.409-13.245 30.678-26.833-.055-.046-.109-.072-.164-.118-.121.1-.232.202-.299.253-.689.54-1.401.874-2.248 1.136-4.134 11.467-14.06 20.45-26.895 22.576-4.103.68-8.134.56-11.999-.164 3.365.438 6.854.406 10.373-.179 12.72-2.106 22.607-10.8 27.075-21.991-.836.006-1.671-.21-2.472-.628-3.9 9.844-12.553 17.496-23.727 19.349-3.69.61-7.318.5-10.792-.15 3.026.392 6.153.374 9.316-.15 11.376-1.885 20.204-9.631 24.246-19.617-.588-.43-1.45-.533-1.92-.957-3.466 9.009-11.344 16.032-21.524 17.72-3.328.551-6.587.453-9.719-.135 2.728.355 5.541.34 8.395-.135 9.3-1.54 16.767-7.42 20.81-15.21a11.869 11.869 0 01-3.796 2.092c-3.73 5.3-9.44 9.184-16.328 10.323-2.974.492-5.894.403-8.693-.119 2.44.317 4.95.303 7.502-.118 6.706-1.112 12.342-4.752 16.178-9.772a13.08 13.08 0 01-2.173.268c-3.35 3.824-7.876 6.637-13.276 7.53-2.719.45-5.386.36-7.947-.118 2.23.291 4.527.28 6.862-.104 5.32-.882 9.824-3.565 13.218-7.245-.06 0-.118.003-.178 0-.715-.037-1.243-.158-1.815-.253-2.856 2.709-6.448 4.671-10.628 5.363-2.45.406-4.87.343-7.175-.09a21.1 21.1 0 006.193-.103c4.174-.692 7.789-2.626 10.686-5.288-.554-.145-1.028-.424-1.504-.686-2.418 2.008-5.338 3.466-8.663 4.02a18.33 18.33 0 01-6.43-.09c1.805.234 3.663.222 5.552-.089 3.422-.568 6.431-2.066 8.915-4.138-.038-.026-.084-.032-.118-.06-.778-.577-1.266-1.165-1.832-2.032-2.532 1.553-5.486 2.48-8.676 2.48-3.276 0-6.276-1.014-8.857-2.645-1.835.22-3.615-.363-4.554-1.792-.04.034-.063.09-.103.118-2.154 1.608-3.977 2.179-6.147 1.346a4.543 4.543 0 01-1.519-1c-.241.236-.482.53-.79.732-2.026 1.317-5.05 1.28-6.623-.554a3.794 3.794 0 01-.551-.853c-.017-.037-.015-.04-.029-.075a3.207 3.207 0 00-.089-.164c-.008 0 .014.018-.046-.014-.031-.017-.037-.023-.074-.046-.256-.153-.425-.326-.612-.493l.014-.012zm80.243-10.026c-.304.94-.551 2.06-.611 3.124-.015.283.049.574.103.85h.014c.072-.005.135.04.21.047.144-1.326.244-2.666.281-4.02h.003zm-92.953-2.599c-.014 0-.028.011-.046.014-.356.06-.703.052-1.056.06.227.312.364.626.537.943.149-.348.367-.677.565-1.017zM67.215.017C45.137.017 26.426 14.314 19.66 34.17c.1-.012.198-.037.299-.046.255-.015.505.075.758.09C26.667 15.203 44.379 1.417 65.28 1.417c5.596 0 10.924 1.04 15.897 2.853A47.634 47.634 0 0067.38 2.225c-20.89 0-38.639 13.438-45.173 32.167 1.286.343 3.296 1.634 3.126 1.51C30.672 18.738 46.63 6.274 65.49 6.274c5.041 0 9.853.936 14.335 2.57a42.973 42.973 0 00-12.443-1.838c-19.162 0-35.418 12.556-41.036 29.91.442.467.77 1.026 1.117 1.568.074.035.155.043.224.09.493.33.812.79 1.085 1.328 3.956-16.801 18.966-29.314 36.913-29.314 4.55 0 8.877.859 12.92 2.331a38.605 38.605 0 00-11.209-1.674c-18.584 0-34.105 13.095-37.97 30.582.27 1.035.242 1.992.075 2.9.844-.217 1.89-.292 1.906-.315 2.165-17.144 16.759-30.389 34.427-30.389 4.157 0 8.122.775 11.817 2.121a35.355 35.355 0 00-10.255-1.524c-17.634 0-32.27 12.936-35.081 29.835-.015-.002 1.86.424 2.71.897 1.806-15.562 14.984-27.64 30.976-27.64 3.738 0 7.29.686 10.611 1.896a31.784 31.784 0 00-9.213-1.36c-16.138 0-29.468 12.011-31.645 27.61.193.15.442.231.612.404.227.234.39.574.565.822.026-.018.813-.758 1.267-1.075 1.559-14.11 13.465-25.087 27.938-25.084 3.37 0 6.592.628 9.586 1.718a28.743 28.743 0 00-8.32-1.225c-14.266 0-26.115 10.395-28.43 24.055-.063.046 1.258-.58 2.01-.732.247-.05.552-.075.552-.075s.031-.121.028-.118c2.214-11.672 12.435-20.485 24.709-20.485 3.014 0 5.894.548 8.573 1.525a25.714 25.714 0 00-7.442-1.09c-12.242 0-22.49 8.551-25.125 20.035-.017.08-.014.141-.014.164.19.01.284-.02.462.015.393.075.747.222 1.071.418 2.001-10.7 11.338-18.81 22.58-18.81 2.757 0 5.381.51 7.83 1.403-2.153-.65-4.436-1-6.801-1-11.393 0-20.813 8.147-23.012 18.931.14.15.216.372.328.553.123-.092.203-.196.341-.285.17-.11.342-.207.58-.343.178-.104.368-.147.551-.239 1.927-9.478 10.273-16.614 20.287-16.614 2.484 0 4.85.453 7.054 1.254a21.133 21.133 0 00-6.118-.896c-9.876 0-18.18 6.76-20.556 15.925.72-.326 1.785-.459 1.785-.464 2.197-7.865 9.383-13.626 17.921-13.626 2.231 0 4.359.412 6.343 1.136a18.884 18.884 0 00-5.493-.807c-8.51 0-15.724 5.59-18.188 13.311a1.794 1.794 0 01.388-.014c.654.08 1.188.357 1.65.717a17.089 17.089 0 012.562-4.916c-.374-.366-.592-.88-.506-1.435.284-1.853 2.894-3.421 5.283-3.692.448-.049.85.043 1.266.09 2.22-1.101 4.703-1.75 7.353-1.75.086 0 .166.029.252.029.34-.205.68-.415 1.117-.597.879-.368 1.984-.7 2.576-.807a8.523 8.523 0 011.533-.135c3.098.014 6.328 1.692 9.227 4.213.408-.175 7.1-2.6 10.396-1.38 2.728 1.06 4.077 2.135 4.505 4.533 1.103 1.694 1.519 3.75 1.16 5.542.155-.02.31-.064.462-.075 1.192-.095 2.234.083 2.992.686.209.167.298.383.43.582 1.051-.64 2.378-1.144 3.572-1.285 2.09-.245 3.669.677 4.005 2.45.038-.102.081-.214.089-.24.422-1.222 3.572-4.527 4.941-5.527.023-.02 1.815-1.355 1.964-1.404C111.691 17.222 91.47 0 67.221 0l-.006.017z" fill="#000"/><path d="M115.102 64.994c-6.142 20.672-24.933 35.862-47.525 35.862-4.034 0-7.956-.481-11.71-1.386" stroke="#000" stroke-miterlimit="10"/><path d="M26.46 39.522c.092.26.204.507.253.792.712 4.09-4.206 7.493-10.301 3.421-.31 1.248.47 2.208 1.519 3.078a2.302 2.302 0 01.028-.882c6.093 4.072 11.014.654 10.302-3.435-.218-1.25-.899-2.234-1.8-2.974zm17.445 8.784c-.126-.012-.281.037-.416.046-.382 2.674-1.978 7.513-.356 7.665.379.035.695-.06.982-.253.298-2.447 1.395-5.934.907-6.784-.238-.415-.634-.625-1.117-.672v-.002zm9.242 10.951c-.54.187-1.335.521-1.814.193h-.015c-1.214 1.224-3.293 2.028-4.777 1.585.428 4.155 6.385 1.97 7.204-.672-.267-.294-.445-.683-.595-1.106h-.003zm22.506-18.764a5.313 5.313 0 00-1.562.253c-2.072.695-1.843 3.669 0 3.078a.842.842 0 01.417-.029 2.147 2.147 0 011.13-.853c.6-.201 1.21-.248 1.787-.239.666-.885 1.177-1.524 1.191-1.628-.14-.08-1.441-.614-2.963-.582zm32.165 7.709c.017 2.334-1.169 7.248-1.384 8.44-.299 1.655.893 1.286 1.8.957.485-2.25 1.594-7.008 1.085-8.276-.413-.69-.93-1.03-1.504-1.121h.003zM44.887 58.45c-1.522 1.97-3.218 3.28-5.478 2.853-.072-.018-.126-.052-.192-.075.192 1.15.689 2.023 1.742 2.27 2.134.404 3.767-.769 5.226-2.555-.767-.366-1.29-1.139-1.295-2.496l-.003.003zm16.09-19.586c-.04 0-.092.015-.135.015-.052.45-.107.888-.21 1.45-.767 4.221-2.684 13.968-2.56 16.328.209.994.964.888 1.667.643.31-3.542 1.775-11.107 2.44-14.776.285-1.567.575-2.694-.238-3.36-.238-.193-.571-.29-.967-.3h.003zM14.328 52.683c.02.136.103.245.103.39-.514.682-1.99.694-1.473 2.627.253.946.844 1.433 1.519 1.585-.037-1.276 1.057-1.423 1.504-2.017 0-1.127-.666-2.008-1.65-2.585h-.003zm36.542-4.378c-.023 2.28-1.108 6.83-1.309 7.949-.301 1.657.965 1.181 1.815.867.479-2.202 1.487-6.565 1.013-7.755-.41-.686-.945-.989-1.519-1.06zm-40.665-7.634c-.264-.034-.508-.031-.7.03-1.717.555-1.72 3.06-.552 3.57.167.072.353.11.566.09.123 0 .206.051.313.074.138-.666.48-1.308 1.234-1.553.127-.04.299-.02.462-.015.15-.524.305-1.057.566-1.585-.135-.077-1.097-.507-1.89-.613v.002zm52.29 18.436c-.45-.05-1.86.945-2.546.357-1.215 1.26-3.06 1.937-3.796 1.957-.508.014-1.05-.179-1.562-.464.36 1.807 1.86 2.68 3.112 2.645 1.114-.031 4.927-1.397 4.927-4.363-.011-.086-.054-.127-.135-.135v.003zm39.058-.147c-1.596 2.066-3.39 3.435-5.76 2.988-.109-.026-.186-.08-.28-.118.209 1.179.743 2.058 1.83 2.317 2.235.42 3.952-.793 5.479-2.66-.738-.406-1.26-1.173-1.266-2.524l-.003-.003zm-6.371-19.306c.135.407.279.81.313 1.286.319 4.343-5.116 6.853-11.504 2.585-2.306 1.268-5.702 9.3-2.263 12.25.121.087.262.098.388.165-.497-1.735-.175-3.88.537-5.813v-.015c.77-2.08 1.92-3.867 2.903-4.406a14.208 14.208 0 002.799 1.45c.735.04 1.418.233 2.053.582 4.03.712 6.87-1.444 6.638-4.617-.112-1.536-.822-2.666-1.86-3.467h-.004zM13.107 49.44c.155.427.334.84.58 1.183.885 1.118 2.314 2.305 3.469 3.51-.589-1.583-2.541-3.176-4.049-4.692zm87.329-1.224c-.103-.011-.232.058-.341.06-.377 2.782-2.122 7.966-.402 8.127.364.035.669-.075.953-.239.284-2.568 1.487-6.343.967-7.245-.249-.435-.671-.651-1.177-.703zm10.285 11.312c-.133-.127-1.58.654-2.323.389-1.272 1.365-3.595 2.273-5.194 1.731.615 4.908 8.875 1.035 7.517-2.12z" fill="#000"/><path d="M22.769 51.576a11.09 11.09 0 011.013 3.989c.032.582.023 1.187-.046 1.778-.204 1.77-.901 3.507-2.308 4.916-4.077 4.093-12.03 4.418-15.957.643 2.793 5.963 12.776 6.314 17.519 1.553 1.872-1.879 2.486-4.363 2.351-6.694v-.015a7.797 7.797 0 01-.52-2.66c-.384-1.244-.93-2.348-1.579-3.106-.12-.141-.33-.265-.476-.404h.003zM2.557 45.945c1.507 3.669 6.41 5.003 9.213 2.21.069-.074.083-.135.135-.21a5.203 5.203 0 01-.52-1.346c-.1-.02-.18-.06-.299-.06-.447.043-.775-.164-1.013-.479-2.145 1.986-5.403 1.707-7.516-.118v.003zm116.619 2.615c-.101.673-.23 1.377-.285 1.449-.126.17-2.383-.21-2.426 0-.542 2.68-1.053 4.982-.967 6.62.209 1.002.976.89 1.682.642.141-1.444.434-3.092.833-5.063.043-.21 2.3.17 2.426 0 .126-.17.692-3.248.284-3.51-.29-.188-1.056-.116-1.547-.136v-.003zm3.944 5.766c.468 1.337 1.674 2.458 2.753 3.377.583-.726-1.228-1.87-2.753-3.377zm-4.421-10.369c-.164-.107-.672.282-1.295.821-.092.522-.172 1.058-.252 1.51-.049.271 1.366.02 1.874.21.164-1.126.221-2.184-.327-2.538v-.003zm-33.907 7.666c-.19.233-.433.423-.58.685-.175.315-.301 1.072.224 1.464.448.499.916.07 1.519-.014-.006-.862-.287-1.723-.683-1.989-.176-.118-.322-.118-.477-.15l-.003.004zm-10.284-5.871c-.037.046-.035.072-.075.118-2.153 2.147-5.18 1.934-7.189.179 1.16 2.83 4.1 4.156 6.713 3.228a17.967 17.967 0 011.34-3.228c-.35.026-.602-.09-.79-.3v.003z" fill="#000"/><path d="M129.818 54.461c.158.447.305.908.299 1.464-.046 4.015-3.598 6-7.1 5.395-.827-.144-1.513-.424-2.07-.792.29 1.38 1.521 2.622 3.632 2.988 3.502.605 7.037-1.378 7.085-5.395.02-1.709-.861-2.78-1.846-3.66zm-10.137 4.663c-.583.156-1.697.798-2.291.3-1.215 1.265-3.072 1.936-3.81 1.956-.511.015-1.051-.178-1.562-.464.353 1.816 1.858 2.695 3.112 2.66 1.06-.031 4.528-1.285 4.867-3.96a3.425 3.425 0 01-.313-.492h-.003zm6.729-10.04c-.201-.018-.39.06-.551.3-.232.345.109.945.669 1.42.244.205.589.513.893.746.64-.904 1.697.6 2.366 1.136.64.513 1.754 1.236 2.426-.075.738-1.438-.038-2.602-1.295-3.377a2.35 2.35 0 01-.253 1.181c-.672 1.311-1.788.602-2.426.09-.505-.407-1.229-1.367-1.832-1.421h.003zm-33.878 1.178c.503 1.453.589 3.424-.06 6.052-2.205 8.954-9.675 9.349-13.545 7.994-.9-.314-1.654-.85-2.309-1.51.873 1.677 2.102 3.093 3.856 3.706 3.821 1.337 11.137.937 13.44-7.694-.093-1.505.163-3.214.49-4.885-.206-1.746-.916-2.916-1.874-3.66l.002-.003zm-55.965-.896c.726 1.772.812 4.02.028 6.245-1.42 4.043-5.084 6.418-8.185 5.32-.563-.199-1.045-.53-1.487-.91.597 1.46 1.63 2.607 3.037 3.106 2.808.994 6.047-.885 7.695-4.242-.279-1.94.264-4.582.7-6.695-.347-1.15-.959-2.12-1.785-2.824h-.003zm-18.159-8.461s2.268-1.876 3.422-.3c.612 1.107-.339 1.24-.844 1.303-.508.063-2.544-.908-2.575-1.003h-.003zm68.425.037s2.897-1.838 4.048-.262c.612 1.107-.528 1.539-1.036 1.6-.508.063-2.977-1.243-3.012-1.34v.002z" fill="#000"/><path d="M30.02 51.709c.225-1.161.793-2.274 1.95-2.046 1.157.225 1.229 1.588 1.002 2.75-.224 1.16-.953 2.051-2.11 1.826-1.157-.224-1.068-1.366-.844-2.527l.003-.003z" fill="#000"/><path d="M18.333 40.937c.881.467 3.445 1.821 3.718.354.273-1.464-2.392-1.792-3.718-.354z" stroke="#030505" stroke-miterlimit="10" stroke-linecap="square"/><path d="M16.406 43.732c-.68 2.726 3.655 4.133 5.292 6.055 2.17 2.547 3.48 8.72-.267 12.478-5.929 5.951-20.066 3.922-18.074-7.092 1.321-7.309 11.074-6.467 11.074-2.104-.514.683-1.995.689-1.478 2.623.534 1.997 2.546 2.152 3.792.752 2.334-2.626-2.607-5.493-4.602-8.015-1.206-1.654-1.39-4.44-.04-7.144-.178-.103-1.82-.844-2.59-.596-1.964.637-1.694 3.824.014 3.663.98 0 1.473.772.695 1.605-3.537 3.524-10.508.539-9.65-5.51.451-3.162 2.57-4.905 4.21-5.473 2.426-.637 6.497 1.501 9.65 3.43.72-.764 2.218-1.612 3.467-2.09 3.526-1.354 8.154.213 8.812 3.991.712 4.09-4.212 7.496-10.305 3.424v.003z" stroke="#030505" stroke-miterlimit="10" stroke-linecap="square"/><path d="M16.406 43.732c-.68 2.726 3.655 4.133 5.292 6.055 2.17 2.547 3.48 8.72-.267 12.478-5.929 5.951-20.066 3.922-18.074-7.092 1.321-7.309 11.074-6.467 11.074-2.104-.514.683-1.995.689-1.478 2.623.534 1.997 2.546 2.152 3.792.752 2.334-2.626-2.607-5.493-4.602-8.015-1.206-1.654-1.39-4.44-.04-7.144-.178-.103-1.82-.844-2.59-.596-1.964.637-1.694 3.824.014 3.663.98 0 1.473.772.695 1.605-3.537 3.524-10.508.539-9.65-5.51.451-3.162 2.57-4.905 4.21-5.473 2.426-.637 6.497 1.501 9.65 3.43.72-.764 2.218-1.612 3.467-2.09 3.526-1.354 8.154.213 8.812 3.991.712 4.09-4.212 7.496-10.305 3.424v.003zm70.206-2.72c.925.49 4.043 2.213 4.47.472.428-1.74-2.417-1.68-4.47-.472z" stroke="#030505" stroke-miterlimit="10" stroke-linecap="square"/><path d="M83.997 43.519c-2.306 1.268-5.717 9.305-2.277 12.26 1.346.976 3.155.538 3.907-.603.695-1.055.279-2.989-.353-3.41-1.08-.717-1.745.528-2.389-.19-.522-.392-.404-1.14-.23-1.455 2.636-4.7 12.553-4.928 9.817 6.199-2.205 8.954-9.678 9.349-13.548 7.994-3.87-1.354-5.318-6.527-5.568-10.098-.5-7.115 5.212-12.772 5.263-13.138-.186-.11-2.46-1.029-4.533-.334-2.073.694-1.843 3.671 0 3.077.631-.245 1.76.335.341 2.04-3.709 3.695-10.089.545-9.187-5.795.47-3.314 2.693-5.14 4.416-5.74 4.625-1.995 9.11 1.902 12.414 3.922 6.512-3.588 13.043-2.478 13.422 2.686.319 4.343-5.11 6.853-11.498 2.585h.003z" stroke="#030505" stroke-miterlimit="10" stroke-linecap="square"/><path d="M25.361 51.623c1.421-4.044 5.09-6.43 8.194-5.332 3.104 1.1 4.465 5.268 3.043 9.314-1.42 4.043-5.09 6.43-8.194 5.332-3.103-1.101-4.464-5.268-3.043-9.312v-.002z" stroke="#030505" stroke-miterlimit="10"/><path d="M31.864 49.703c1.823.104 1.387 4.917-.847 4.6-2.233-.317-.976-4.703.847-4.6z" stroke="#030505" stroke-miterlimit="10"/><path d="M37.977 48.435c-.052 0 .6-.006.784.712.407 1.597-3.342 11.21.643 12.156 2.26.426 3.967-.88 5.489-2.85.02 5.515 8.602 1.564 7.26-1.554-.18-.173-3.002 1.57-2.597-.651.24-1.323 1.829-7.686 1.274-9.078-1.587-2.648-4.947.274-5.75 1.17-.055 0 .993-.233.993.576-.657 5.514-1.31 7.254-2.943 7.101-2.05-.193 1.088-7.933.342-9.23-.956-1.666-4.488.052-5.495 1.648zm56.318.017c-.055 0 .629-.005.821.747.425 1.674-3.505 11.755.675 12.746 2.368.447 4.16-.922 5.756-2.988.02 5.783 9.021 1.642 7.614-1.631-.192-.182-3.146 1.645-2.724-.683.252-1.39 1.918-8.061 1.338-9.522-1.666-2.778-5.188.288-6.032 1.228-.058 0 1.042-.245 1.042.605-.689 5.78-1.373 7.605-3.084 7.444-2.15-.202 1.14-8.317.359-9.68-1.002-1.747-4.706.054-5.762 1.729l-.003.005z" stroke="#030505" stroke-miterlimit="10" stroke-linecap="round"/><path d="M54.965 39.184c2.01-2.28 4.476-2.994 5.426-2.216.813.666.531 1.798.247 3.366-.767 4.222-2.69 13.966-2.564 16.326.41 1.945 2.911-.303 3.006.392 0 2.965-3.816 4.334-4.93 4.366-1.596.046-3.709-1.343-3.16-4.346 1.088-5.963 2.962-15.199 2.962-17.121 0-1-1.002-.74-.99-.767h.003zm55.91 10.444c-.218-.265-.195-1.657.149-2.054 1.892-2.18 5.593-6.147 6.124-5.802.882.574.285 2.957 0 4.522-.051.285 1.614-.052 2.022.21.407.266-.153 3.332-.279 3.502-.126.17-2.38-.21-2.423 0-.543 2.68-1.051 4.98-.965 6.617.411 1.945 2.912-.303 3.006.392 0 2.965-3.815 4.334-4.929 4.365-1.597.047-3.71-1.342-3.161-4.345 1.088-5.963 1.395-7.03 1.395-7.03s-.724-.114-.939-.38v.003zm19.794.79c1.524-2.977-3.236-5.014-5.975-4.121-2.739.893-3.445 3.27-3.351 4.994.175 3.216 5.659 5.329 4.517 6.47-1.941 1.94-3.575-4.853-5.78-2.127-1.679 2.075-.563 5.087 2.94 5.692 3.503.605 7.04-1.38 7.089-5.398.031-2.77-2.334-4.07-3.578-5.121-.56-.476-.904-1.084-.671-1.43.64-.95 1.708.58 2.382 1.122.641.513 1.755 1.233 2.427-.078v-.003z" stroke="#030505" stroke-miterlimit="10" stroke-linecap="round"/></svg>