<svg width="133" height="102" viewBox="0 0 133 102" fill="none" xmlns="http://www.w3.org/2000/svg">
<path d="M65.8143 46.5417C64.1749 47.1296 62.9863 48.6541 62.9863 50.5014C62.9863 52.8501 64.8755 54.7608 67.2125 54.7608C69.5495 54.7608 71.3813 52.9049 71.4387 50.608" stroke="black" stroke-miterlimit="10"/>
<path d="M65.5732 50.5073C65.5732 49.5937 66.3111 48.856 67.2183 48.856C68.1256 48.856 68.8635 49.5966 68.8635 50.5073C68.8635 51.4179 68.1256 52.1585 67.2183 52.1585C66.3111 52.1585 65.5732 51.4179 65.5732 50.5073Z" fill="black"/>
<path d="M65.5732 50.5073C65.5732 49.5937 66.3111 48.856 67.2183 48.856C68.1256 48.856 68.8635 49.5966 68.8635 50.5073C68.8635 51.4179 68.1256 52.1585 67.2183 52.1585C66.3111 52.1585 65.5732 51.4179 65.5732 50.5073Z" stroke="#030505" stroke-width="0.03" stroke-miterlimit="10"/>
<path d="M113.623 64.7262C110.562 77.7896 102.047 89.049 90.1807 95.3977C102.294 89.1383 111.541 78.0951 115.455 64.7551C115.245 64.7781 115.035 64.8876 114.829 64.8905C114.401 64.8963 114.008 64.8156 113.623 64.7262ZM37.2214 61.9914C36.4376 62.8156 35.582 63.5447 34.6748 64.0519C32.4296 65.3141 30.0524 65.3257 27.9622 63.7666C27.2933 63.268 26.7621 62.7579 26.3688 62.1988C25.2606 64.7839 22.9408 66.9712 20.1616 68.2046C27.3134 87.3429 45.6479 101 67.2123 101C69.5235 101 71.7859 100.795 74.0138 100.493C69.1302 101.092 64.3298 100.911 59.7103 100.043C64.2379 100.631 68.9177 100.588 73.6578 99.804C93.0575 96.5908 107.708 82.072 112.207 64.0807C111.811 63.7954 111.481 63.4409 111.225 63.0058C111.114 63.1585 111.016 63.3112 110.852 63.4553C110.091 64.1239 109.161 64.6801 108.38 65.0404C104.151 80.4006 91.5559 92.7378 74.8608 95.5043C69.8853 96.3285 65.0045 96.1902 60.3189 95.3112C64.3987 95.8415 68.6134 95.8098 72.8826 95.1009C89.4084 92.3631 102.035 80.4755 106.804 65.4899C105.77 65.5994 104.829 65.3977 103.93 64.8617C99.8245 78.219 88.659 88.8444 73.9823 91.2767C69.4919 92.0202 65.082 91.8934 60.853 91.098C64.5336 91.5764 68.3435 91.5418 72.1936 90.9049C87.1575 88.4265 98.6015 77.66 102.871 64.0721C102.816 64.0259 102.762 64 102.707 63.9539C102.586 64.0548 102.475 64.1556 102.408 64.2075C101.719 64.7464 101.007 65.0807 100.16 65.3429C96.0262 76.8098 86.1009 85.7925 73.2645 87.9193C69.1618 88.5994 65.1308 88.4784 61.2664 87.7551C64.6313 88.1931 68.1196 88.1614 71.6395 87.5764C84.3582 85.4698 94.2461 76.7752 98.7135 65.585C97.878 65.5908 97.0425 65.3747 96.2415 64.9568C92.3426 74.8012 83.6893 82.4525 72.5152 84.3055C68.8259 84.9164 65.1968 84.8069 61.7229 84.1556C64.749 84.5476 67.8755 84.5303 71.0394 84.0058C82.4145 82.121 91.243 74.3746 95.2854 64.3891C94.6969 63.9597 93.8355 63.8559 93.3647 63.4323C89.8993 72.4409 82.0212 79.464 71.8405 81.1527C68.5129 81.7032 65.2543 81.6052 62.122 81.0173C64.8495 81.3718 67.6631 81.3573 70.5169 80.8818C79.8162 79.3429 87.2838 73.4611 91.3263 65.6715C90.2209 66.5793 88.9433 67.294 87.5307 67.7637C83.8012 73.0634 78.0907 76.9481 71.2031 78.0865C68.2287 78.5793 65.3088 78.4899 62.5096 77.9683C64.95 78.2853 67.4592 78.2709 70.0116 77.8502C76.7184 76.7378 82.3542 73.098 86.19 68.0778C85.4865 68.2305 84.763 68.3112 84.0166 68.3458C80.6661 72.17 76.1413 74.9827 70.7408 75.8761C68.022 76.3256 65.3548 76.2363 62.7938 75.7579C65.0246 76.049 67.3214 76.0375 69.6556 75.6542C74.9756 74.7723 79.4803 72.0893 82.8739 68.4092C82.8136 68.4092 82.7562 68.4121 82.6959 68.4092C81.981 68.3718 81.4527 68.2507 80.8814 68.1556C78.0247 70.8646 74.433 72.8271 70.2528 73.5187C67.8038 73.9251 65.3835 73.8617 63.078 73.4294C65.0878 73.6916 67.1664 73.6744 69.2709 73.3257C73.4454 72.634 77.06 70.7003 79.9569 68.0375C79.4028 67.8934 78.9291 67.6138 78.4525 67.3516C76.0351 69.3602 73.1152 70.8184 69.7905 71.3718C67.5884 71.7378 65.4323 71.6715 63.3594 71.2824C65.1653 71.5158 67.0228 71.5043 68.912 71.1931C72.3343 70.6254 75.3431 69.1268 77.8266 67.0548C77.7893 67.0288 77.7433 67.0231 77.7089 66.9942C76.9308 66.4179 76.4428 65.83 75.8772 64.9625C73.3449 66.5159 70.3906 67.4438 67.2008 67.4438C63.925 67.4438 60.9247 66.4294 58.3437 64.7983C56.5091 65.0173 54.729 64.4352 53.7902 63.0058C53.75 63.0404 53.727 63.0951 53.6868 63.1239C51.5335 64.732 49.7104 65.3026 47.5399 64.4698C46.9628 64.2479 46.4546 63.8905 46.0211 63.4697C45.78 63.7061 45.5388 64 45.2316 64.2017C43.2046 65.5187 40.1814 65.4813 38.6081 63.6484C38.3841 63.3862 38.2492 63.1758 38.0568 62.7954C38.0396 62.7579 38.0425 62.7551 38.0281 62.7205C37.9822 62.6311 37.9592 62.5908 37.9391 62.5562C37.9305 62.5562 37.9535 62.5735 37.8932 62.5418C37.8616 62.5245 37.8559 62.5187 37.8186 62.4957C37.563 62.3429 37.3936 62.17 37.207 62.0029L37.2214 61.9914ZM117.464 51.9654C117.16 52.9049 116.913 54.0259 116.853 55.0893C116.838 55.3718 116.902 55.6628 116.956 55.9395C116.962 55.9395 116.968 55.9395 116.97 55.9395C117.042 55.9337 117.105 55.9798 117.18 55.9856C117.324 54.6599 117.424 53.3199 117.461 51.9654H117.464ZM24.5112 49.366C24.4969 49.366 24.4825 49.3775 24.4653 49.3804C24.1093 49.4409 23.7619 49.4323 23.4088 49.4409C23.6356 49.7522 23.7734 50.0663 23.9457 50.3833C24.0949 50.0346 24.3131 49.7061 24.5112 49.366ZM67.2152 0.0172904C45.1368 0.0172904 26.4262 14.3141 19.6592 34.17C19.7597 34.1585 19.8573 34.1326 19.9578 34.1239C20.2133 34.1095 20.4631 34.1989 20.7157 34.2133C26.6674 15.2046 44.3789 1.41787 65.2801 1.41787C70.8758 1.41787 76.2044 2.45822 81.1771 4.2709C76.8045 2.95101 72.1821 2.22478 67.3788 2.22478C46.4891 2.22478 28.7403 15.6628 22.2058 34.3919C23.492 34.7349 25.5017 36.0259 25.3324 35.902C30.6725 18.7377 46.6298 6.27377 65.4897 6.27377C70.5312 6.27377 75.3431 7.21038 79.8248 8.84438C75.8858 7.65418 71.7055 7.00576 67.3817 7.00576C48.2204 7.00576 31.9645 19.562 26.3458 36.9164C26.788 37.3833 27.1153 37.9424 27.4627 38.4842C27.5373 38.5187 27.6177 38.5274 27.6866 38.5735C28.1804 38.9049 28.4991 39.3631 28.7719 39.902C32.7282 23.1009 47.738 10.5879 65.6849 10.5879C70.2355 10.5879 74.5622 11.4467 78.6047 12.9193C75.0503 11.8444 71.3007 11.245 67.3961 11.245C48.8118 11.245 33.2909 24.3401 29.4265 41.8271C29.6963 42.8617 29.6676 43.8185 29.5011 44.7262C30.3452 44.5101 31.3903 44.4352 31.4075 44.4121C33.5723 27.268 48.1658 14.0231 65.8342 14.0231C69.9915 14.0231 73.9564 14.7983 77.6515 16.1441C74.4014 15.1614 70.9648 14.6196 67.3961 14.6196C49.7621 14.6196 35.1255 27.5562 32.3147 44.4553C32.3004 44.4525 34.1752 44.879 35.025 45.3516C36.8309 29.7896 50.009 17.7118 66.0007 17.7118C69.7388 17.7118 73.2903 18.3977 76.6121 19.6081C73.6923 18.7262 70.6059 18.2478 67.3989 18.2478C51.2608 18.2478 37.9305 30.2594 35.7543 45.8588C35.9466 46.0087 36.1964 46.0893 36.3658 46.2623C36.5926 46.4957 36.7563 46.8357 36.9314 47.0836C36.9572 47.0663 37.7439 46.3257 38.1975 46.0086C39.7565 31.8991 51.6627 20.9222 66.1357 20.9251C69.5063 20.9251 72.7276 21.5533 75.7221 22.6427C73.0865 21.8473 70.2958 21.4179 67.4018 21.4179C53.1356 21.4179 41.2868 31.8127 38.9727 45.4726C38.9095 45.5187 40.2302 44.8934 40.9824 44.7406C41.2293 44.6916 41.5337 44.6657 41.5337 44.6657C41.5337 44.6657 41.5653 44.5447 41.5624 44.5476C43.776 32.8761 53.9969 24.0634 66.2706 24.0634C69.2852 24.0634 72.1649 24.611 74.8436 25.5879C72.4864 24.8761 69.9858 24.4986 67.4018 24.4986C55.1597 24.4986 44.9129 33.049 42.2773 44.5331C42.2601 44.6138 42.2629 44.6744 42.2629 44.6974C42.4524 44.7061 42.5472 44.6772 42.7252 44.7118C43.1185 44.7867 43.4716 44.9337 43.7961 45.1297C45.7972 34.4294 55.1338 26.3199 66.3769 26.3199C69.1331 26.3199 71.7572 26.83 74.2062 27.7233C72.0529 27.0721 69.7704 26.7233 67.4047 26.7233C56.0124 26.7233 46.5925 34.8703 44.3932 45.6542C44.5339 45.804 44.6086 46.0259 44.7205 46.2075C44.844 46.1153 44.9244 46.0115 45.0622 45.9222C45.2316 45.8127 45.4039 45.7147 45.6422 45.5793C45.8202 45.4755 46.0096 45.4323 46.1934 45.3401C48.1199 35.8617 56.466 28.7262 66.4802 28.7262C68.9637 28.7262 71.3294 29.1787 73.5344 29.9798C71.5935 29.3948 69.5465 29.0836 67.4162 29.0836C57.5398 29.0836 49.2367 35.8444 46.8595 45.0086C47.5801 44.683 48.6453 44.5504 48.6453 44.5447C50.8416 36.6801 58.0278 30.9193 66.5663 30.9193C68.7971 30.9193 70.9246 31.3314 72.9085 32.0548C71.1658 31.5274 69.3312 31.2478 67.4162 31.2478C58.9064 31.2478 51.6915 36.8386 49.2281 44.5591C49.1994 44.5533 49.4951 44.5303 49.6157 44.5447C50.2703 44.6254 50.8043 44.902 51.2665 45.2623C51.8494 43.4726 52.7279 41.8213 53.8275 40.3458C53.4543 39.9798 53.2361 39.4669 53.3222 38.9107C53.6064 37.0576 56.2162 35.4899 58.6049 35.219C59.0528 35.17 59.4548 35.2622 59.8711 35.3084C62.0904 34.2075 64.5738 33.5591 67.2238 33.5591C67.3099 33.5591 67.3903 33.5879 67.4765 33.5879C67.8153 33.3833 68.1569 33.1729 68.5933 32.9914C69.4718 32.6225 70.5772 32.2911 71.1686 32.1844C71.6711 32.0951 72.1879 32.0461 72.7018 32.049C75.7996 32.0634 79.0296 33.7406 81.9293 36.2622C82.337 36.0865 89.0294 33.6628 92.3254 34.8818C95.0529 35.9424 96.4023 37.0173 96.8301 39.415C97.9325 41.1095 98.3488 43.1643 97.9899 44.9568C98.145 44.9366 98.3 44.8934 98.4522 44.8818C99.6437 44.7867 100.686 44.9654 101.444 45.5677C101.653 45.7349 101.742 45.951 101.874 46.1499C102.925 45.5101 104.252 45.0058 105.446 44.8646C107.536 44.6196 109.115 45.5418 109.451 47.3141C109.489 47.2133 109.532 47.1009 109.54 47.0749C109.962 45.853 113.112 42.5476 114.481 41.5476C114.504 41.5274 116.296 40.1931 116.445 40.1441C111.691 17.2219 91.4698 0 67.2209 0L67.2152 0.0172904Z" fill="black"/>
<path d="M115.102 64.9941C108.96 85.6656 90.1695 100.856 67.5772 100.856C63.5434 100.856 59.6215 100.375 55.8662 99.4696" stroke="black" stroke-miterlimit="10"/>
<path d="M26.4606 39.5217C26.5525 39.7811 26.6644 40.0289 26.7133 40.3142C27.4253 44.4036 22.5072 47.807 16.4119 43.735C16.1019 44.9828 16.8828 45.9425 17.9307 46.8128C17.8905 46.5361 17.8848 46.2393 17.9594 45.9309C24.0518 50.003 28.9728 46.5851 28.2607 42.4958C28.0425 41.2451 27.3621 40.2624 26.4606 39.5217Z" fill="black"/>
<path d="M43.9052 48.3055C43.7788 48.2939 43.6238 48.3429 43.4889 48.3516C43.107 51.0259 41.5107 55.8645 43.1329 56.0173C43.5118 56.0519 43.8277 55.9568 44.1148 55.7637C44.4134 53.317 45.5101 49.83 45.022 48.9798C44.7837 48.5648 44.3875 48.3545 43.9052 48.3083V48.3055Z" fill="black"/>
<path d="M53.1473 59.2566C52.6075 59.4439 51.8123 59.7782 51.3328 59.4497C51.3328 59.4497 51.3213 59.4497 51.3184 59.4497C50.104 60.6745 48.0253 61.4785 46.541 61.0347C46.9688 65.1903 52.9262 63.0059 53.7445 60.3632C53.4775 60.0693 53.2995 59.6802 53.1502 59.2566H53.1473Z" fill="black"/>
<path d="M75.6532 40.4928C75.1451 40.5043 74.6082 40.5735 74.0914 40.7464C72.0185 41.4409 72.2482 44.415 74.0914 43.8242C74.2177 43.7752 74.367 43.7752 74.5077 43.7954C74.7489 43.4294 75.1192 43.1182 75.6389 42.9424C76.2389 42.7407 76.8476 42.6945 77.4247 42.7032C78.0907 41.8185 78.6018 41.1787 78.6162 41.0749C78.4755 40.9943 77.1749 40.4611 75.6532 40.4928Z" fill="black"/>
<path d="M107.818 48.2017C107.835 50.536 106.649 55.4495 106.434 56.6426C106.135 58.2968 107.327 57.9279 108.234 57.5994C108.719 55.3486 109.828 50.5907 109.319 49.3227C108.906 48.6339 108.389 48.2939 107.815 48.2017H107.818Z" fill="black"/>
<path d="M44.8871 58.4497C43.3655 60.4208 41.6687 61.7292 39.4092 61.3027C39.3374 61.2854 39.2828 61.2508 39.2168 61.2278C39.4092 62.3776 39.9058 63.2508 40.9595 63.4987C43.0927 63.9021 44.7263 62.7292 46.1848 60.9425C45.4182 60.5765 44.8957 59.8041 44.89 58.4468L44.8871 58.4497Z" fill="black"/>
<path d="M60.9766 38.8645C60.9364 38.8645 60.8847 38.8789 60.8417 38.8789C60.79 39.3285 60.7354 39.7665 60.6321 40.3285C59.8655 44.5504 57.9477 54.2968 58.0711 56.657C58.2807 57.6513 59.0358 57.5446 59.7392 57.2997C60.0493 53.7579 61.5135 46.193 62.1796 42.5244C62.4638 40.9567 62.7538 39.8299 61.9413 39.1642C61.703 38.9711 61.3699 38.8731 60.9737 38.8645H60.9766Z" fill="black"/>
<path d="M14.3277 52.6831C14.3478 52.8186 14.4311 52.9281 14.4311 53.0722C13.9172 53.7552 12.4414 53.7667 12.9582 55.7004C13.2109 56.6456 13.8023 57.1327 14.477 57.2854C14.4397 56.0088 15.5336 55.8618 15.9814 55.2681C15.9814 54.1413 15.3154 53.2595 14.3306 52.6831H14.3277Z" fill="black"/>
<path d="M50.8702 48.3054C50.8473 50.585 49.762 55.1354 49.5611 56.2536C49.2596 57.9106 50.5257 57.4351 51.3756 57.121C51.855 54.9193 52.8628 50.5561 52.389 49.3659C51.9785 48.6801 51.4445 48.3775 50.8702 48.3054Z" fill="black"/>
<path d="M10.2049 40.6714C9.9408 40.6368 9.69676 40.6397 9.5044 40.7002C7.78752 41.2564 7.78464 43.7608 8.95316 44.2708C9.11968 44.3429 9.3063 44.3804 9.51876 44.3602C9.64221 44.3602 9.72547 44.4121 9.8317 44.4351C9.96951 43.7694 10.3112 43.1268 11.0663 42.8818C11.1926 42.8414 11.3648 42.8616 11.5285 42.8674C11.6778 42.3429 11.8328 41.8098 12.0941 41.2824C11.9591 41.2046 10.9973 40.7752 10.2049 40.6685V40.6714Z" fill="black"/>
<path d="M62.4953 59.1066C62.0445 59.0577 60.6349 60.0519 59.9487 59.464C58.7342 60.7234 56.8881 61.4006 56.1532 61.4208C55.645 61.4352 55.1024 61.2421 54.5913 60.9568C54.9502 62.7637 56.4517 63.6369 57.7035 63.6023C58.8175 63.5706 62.6302 62.2046 62.6302 59.2392C62.6188 59.1528 62.5757 59.1124 62.4953 59.1038V59.1066Z" fill="black"/>
<path d="M101.553 58.9597C99.9566 61.026 98.1622 62.3949 95.7936 61.9482C95.6845 61.9223 95.607 61.8675 95.5122 61.83C95.7218 63.0087 96.2558 63.8877 97.3439 64.147C99.5776 64.5678 101.295 63.3545 102.822 61.4871C102.084 61.0808 101.562 60.3142 101.556 58.9626L101.553 58.9597Z" fill="black"/>
<path d="M95.1822 39.6543C95.3172 40.0606 95.4607 40.4641 95.4952 40.9396C95.8138 45.2825 90.379 47.7926 83.9909 43.5246C81.6854 44.7926 78.289 52.8243 81.7285 55.7753C81.8491 55.8618 81.9898 55.8733 82.1161 55.9396C81.6194 54.2047 81.941 52.0606 82.653 50.1269C82.653 50.124 82.653 50.1154 82.653 50.1125C83.4224 48.0318 84.5737 46.2451 85.5556 45.7062C86.5231 46.3517 87.4476 46.8042 88.3549 47.1557C89.0899 47.1961 89.7732 47.3892 90.4077 47.7379C94.4386 48.4497 97.2781 46.2941 97.0455 43.1212C96.9336 41.5851 96.2244 40.4554 95.1851 39.6543H95.1822Z" fill="black"/>
<path d="M13.1074 49.4409C13.2625 49.8674 13.4405 50.2795 13.6874 50.6225C14.5716 51.7406 16.0014 52.9279 17.1556 54.1326C16.567 52.5504 14.6147 50.9568 13.1074 49.4409Z" fill="black"/>
<path d="M100.436 48.2161C100.333 48.2046 100.204 48.2738 100.095 48.2767C99.7184 51.0576 97.9728 56.2421 99.6926 56.4035C100.057 56.438 100.362 56.3285 100.646 56.1643C100.93 53.5965 102.133 49.8213 101.613 48.9193C101.364 48.4842 100.942 48.268 100.436 48.2161Z" fill="black"/>
<path d="M110.721 59.5275C110.588 59.4007 109.141 60.1816 108.398 59.9165C107.126 61.2825 104.803 62.1903 103.204 61.6485C103.819 66.5563 112.079 62.6831 110.721 59.5275Z" fill="black"/>
<path d="M22.7688 51.5764C23.3028 52.732 23.699 54.1009 23.7822 55.5649C23.8138 56.147 23.8052 56.7522 23.7363 57.343C23.5325 59.1124 22.8348 60.8502 21.428 62.2594C17.3511 66.3516 9.3983 66.6773 5.4707 62.9021C8.26423 68.8646 18.2469 69.2162 22.9898 64.4554C24.8618 62.5764 25.4762 60.0923 25.3412 57.7609C25.3412 57.7551 25.3412 57.7522 25.3412 57.7464C25.0225 56.9395 24.8474 56.0433 24.8216 55.0865C24.4368 53.8415 23.8913 52.7378 23.2425 51.9799C23.1219 51.8387 22.9123 51.7147 22.7659 51.5764H22.7688Z" fill="black"/>
<path d="M2.55664 45.9453C4.06394 49.6138 8.96769 50.9481 11.7698 48.1556C11.8387 48.0807 11.8531 48.0202 11.9048 47.9453C11.678 47.536 11.5028 47.098 11.3851 46.5994C11.2846 46.5793 11.2042 46.5389 11.0865 46.5389C10.6386 46.5821 10.3113 46.3747 10.073 46.0605C7.92838 48.0461 4.66973 47.7666 2.55664 45.9424V45.9453Z" fill="black"/>
<path d="M119.176 48.5591C119.075 49.2334 118.946 49.9366 118.891 50.0086C118.765 50.1787 116.508 49.7983 116.465 50.0086C115.923 52.6888 115.412 54.9914 115.498 56.6282C115.707 57.6311 116.474 57.5187 117.18 57.2709C117.321 55.8271 117.614 54.1787 118.013 52.2075C118.056 51.9971 120.313 52.3775 120.439 52.2075C120.565 52.0375 121.131 48.9597 120.723 48.6974C120.433 48.5101 119.667 48.5821 119.176 48.562V48.5591Z" fill="black"/>
<path d="M123.12 54.3257C123.588 55.6629 124.794 56.7839 125.873 57.7032C126.456 56.977 124.645 55.8329 123.12 54.3257Z" fill="black"/>
<path d="M118.699 43.9569C118.535 43.8502 118.027 44.2393 117.404 44.7782C117.312 45.2998 117.232 45.8358 117.152 46.2883C117.103 46.5592 118.518 46.3085 119.026 46.4987C119.19 45.3719 119.247 44.3142 118.699 43.9598V43.9569Z" fill="black"/>
<path d="M84.792 51.6225C84.6026 51.8559 84.3585 52.0461 84.2121 52.3084C84.037 52.6225 83.9106 53.3804 84.436 53.7724C84.8839 54.2709 85.3519 53.8415 85.9548 53.758C85.9491 52.8963 85.6677 52.0346 85.2715 51.7695C85.0964 51.6513 84.95 51.6513 84.7949 51.6196L84.792 51.6225Z" fill="black"/>
<path d="M74.5079 45.7522C74.4706 45.7983 74.4734 45.8242 74.4332 45.8703C72.28 48.0173 69.2539 47.804 67.2441 46.049C68.404 48.879 71.344 50.2046 73.9567 49.2766C74.3098 48.0922 74.7835 47.0288 75.2974 46.049C74.9472 46.0749 74.6945 45.9596 74.5079 45.7493V45.7522Z" fill="black"/>
<path d="M129.818 54.4612C129.976 54.9079 130.123 55.369 130.117 55.9252C130.071 59.9396 126.519 61.9252 123.017 61.32C122.19 61.1759 121.504 60.8963 120.947 60.5275C121.237 61.9079 122.468 63.1499 124.579 63.5159C128.081 64.1211 131.616 62.1384 131.664 58.1211C131.684 56.4122 130.803 55.3401 129.818 54.4612Z" fill="black"/>
<path d="M119.681 59.124C119.098 59.2796 117.984 59.9223 117.39 59.4237C116.175 60.6889 114.318 61.3603 113.58 61.3805C113.069 61.3949 112.529 61.2018 112.018 60.9165C112.371 62.7321 113.876 63.611 115.13 63.5765C116.19 63.5448 119.658 62.2912 119.997 59.6168C119.876 59.4583 119.773 59.2941 119.684 59.124H119.681Z" fill="black"/>
<path d="M126.41 49.0836C126.209 49.0663 126.02 49.1441 125.859 49.3833C125.627 49.7291 125.968 50.3286 126.528 50.8041C126.772 51.0087 127.117 51.317 127.421 51.5505C128.061 50.6456 129.118 52.1499 129.787 52.6859C130.427 53.1989 131.541 53.9222 132.213 52.611C132.951 51.1729 132.175 50.0087 130.918 49.2335C130.929 49.6081 130.878 49.9972 130.665 50.415C129.993 51.7263 128.877 51.0173 128.239 50.5044C127.734 50.098 127.01 49.1384 126.407 49.0836H126.41Z" fill="black"/>
<path d="M92.5324 50.2622C93.0348 51.7147 93.121 53.6858 92.4721 56.3141C90.2671 65.268 82.7967 65.6628 78.9265 64.3083C78.0279 63.9942 77.2728 63.4582 76.6182 62.7982C77.491 64.4755 78.7198 65.8905 80.474 66.5043C84.2953 67.8415 91.6108 67.4409 93.9133 58.8098C93.8215 57.3054 94.077 55.5965 94.4043 53.925C94.1976 52.1786 93.4884 51.0086 92.5295 50.2651L92.5324 50.2622Z" fill="black"/>
<path d="M36.5667 49.366C37.2931 51.1383 37.3792 53.3861 36.5954 55.6109C35.1742 59.6542 31.5108 62.0288 28.4101 60.9308C27.8473 60.732 27.365 60.4006 26.9229 60.0201C27.52 61.4812 28.5536 62.6282 29.9604 63.1268C32.7683 64.121 36.0068 62.242 37.6548 58.8847C37.3763 56.9452 37.919 54.3026 38.3554 52.1902C38.008 51.0403 37.3964 50.0691 36.5696 49.366H36.5667Z" fill="black"/>
<path d="M18.4077 40.9049C18.4077 40.9049 20.6759 39.0288 21.83 40.6051C22.4415 41.7118 21.4912 41.8443 20.9859 41.9077C20.4778 41.9711 18.4422 41 18.4106 40.9049H18.4077Z" fill="black"/>
<path d="M86.833 40.9423C86.833 40.9423 89.7299 39.1037 90.8812 40.68C91.4927 41.7867 90.3529 42.2189 89.8447 42.2795C89.3366 42.3429 86.8675 41.0374 86.833 40.9394V40.9423Z" fill="black"/>
<path d="M30.0207 51.709C30.2447 50.5476 30.8131 49.4352 31.9702 49.6629C33.1272 49.8877 33.199 51.2508 32.9722 52.4122C32.7482 53.5736 32.019 54.4641 30.8619 54.2393C29.7049 54.0145 29.7939 52.8733 30.0179 51.7119L30.0207 51.709Z" fill="black"/>
<path d="M18.333 40.9367C19.2144 41.4036 21.7783 42.758 22.051 41.2912C22.3238 39.8272 19.6594 39.4987 18.333 40.9367Z" stroke="#030505" stroke-miterlimit="10" stroke-linecap="square"/>
<path d="M16.4064 43.7319C15.726 46.4581 20.0612 47.8645 21.6977 49.7867C23.8682 52.3342 25.1774 58.5071 21.4307 62.2651C15.502 68.2161 1.36498 66.1873 3.35749 55.1728C4.67817 47.8645 14.4311 48.706 14.4311 53.0691C13.9172 53.7521 12.4357 53.7579 12.9525 55.6916C13.4865 57.6887 15.4991 57.8443 16.7452 56.4437C19.0793 53.8184 14.1383 50.9509 12.1429 48.4293C10.9371 46.7751 10.7533 43.9884 12.1027 41.2852C11.9247 41.1815 10.2825 40.4408 9.51301 40.6887C7.54922 41.3256 7.81909 44.5129 9.52736 44.3515C10.5064 44.3515 11.0002 45.1238 10.2222 45.9567C6.68503 49.4812 -0.285875 46.4956 0.572568 40.4466C1.02332 37.2852 3.14216 35.5417 4.78152 34.974C7.20756 34.3371 11.2787 36.4754 14.4311 38.4034C15.1518 37.6397 16.6504 36.7924 17.8993 36.314C21.425 34.9596 26.0531 36.5273 26.7106 40.3054C27.4226 44.3947 22.4988 47.8011 16.4064 43.729V43.7319Z" stroke="#030505" stroke-miterlimit="10" stroke-linecap="square"/>
<path d="M16.4064 43.7319C15.726 46.4581 20.0612 47.8645 21.6977 49.7867C23.8682 52.3342 25.1774 58.5071 21.4307 62.2651C15.502 68.2161 1.36498 66.1873 3.35749 55.1728C4.67817 47.8645 14.4311 48.706 14.4311 53.0691C13.9172 53.7521 12.4357 53.7579 12.9525 55.6916C13.4865 57.6887 15.4991 57.8443 16.7452 56.4437C19.0793 53.8184 14.1383 50.9509 12.1429 48.4293C10.9371 46.7751 10.7533 43.9884 12.1027 41.2852C11.9247 41.1815 10.2825 40.4408 9.51301 40.6887C7.54922 41.3256 7.81909 44.5129 9.52736 44.3515C10.5064 44.3515 11.0002 45.1238 10.2222 45.9567C6.68503 49.4812 -0.285875 46.4956 0.572568 40.4466C1.02332 37.2852 3.14216 35.5417 4.78152 34.974C7.20756 34.3371 11.2787 36.4754 14.4311 38.4034C15.1518 37.6397 16.6504 36.7924 17.8993 36.314C21.425 34.9596 26.0531 36.5273 26.7106 40.3054C27.4226 44.3947 22.4988 47.8011 16.4064 43.729V43.7319Z" stroke="#030505" stroke-miterlimit="10" stroke-linecap="square"/>
<path d="M86.6123 41.0116C87.5368 41.5015 90.6547 43.2249 91.0825 41.4843C91.5103 39.7436 88.6651 39.8041 86.6123 41.0116Z" stroke="#030505" stroke-miterlimit="10" stroke-linecap="square"/>
<path d="M83.9966 43.5188C81.6912 44.7868 78.2804 52.8243 81.7199 55.7782C83.0664 56.7551 84.8751 56.3171 85.6274 55.1759C86.3221 54.1211 85.9059 52.1874 85.2742 51.7666C84.1947 51.0491 83.5286 52.294 82.8855 51.5764C82.363 51.1845 82.4807 50.4352 82.6558 50.1211C85.2915 45.4208 95.208 45.1931 92.4719 56.3199C90.267 65.2738 82.7936 65.6686 78.9235 64.3142C75.0533 62.9597 73.6063 57.7868 73.3565 54.2162C72.8569 47.1009 78.5675 41.4439 78.6191 41.0779C78.4325 40.9684 76.1586 40.0491 74.0857 40.7436C72.0128 41.4381 72.2425 44.415 74.0857 43.8214C74.7174 43.5764 75.8457 44.1557 74.4274 45.8617C70.718 49.5563 64.3385 46.4064 65.2401 40.0663C65.7109 36.7522 67.9331 34.9251 69.6557 34.3257C74.281 32.3315 78.7655 36.2277 82.0701 38.2479C88.5817 34.66 95.1133 35.7695 95.4923 40.9338C95.811 45.2767 90.3818 47.7868 83.9937 43.5188H83.9966Z" stroke="#030505" stroke-miterlimit="10" stroke-linecap="square"/>
<path d="M25.361 51.6225C26.7822 47.5793 30.4514 45.1931 33.555 46.2911C36.6586 47.3919 38.0195 51.5591 36.5983 55.6052C35.1771 59.6484 31.5079 62.0346 28.4043 60.9366C25.3007 59.8357 23.9399 55.6686 25.361 51.6254V51.6225Z" stroke="#030505" stroke-miterlimit="10"/>
<path d="M31.8642 49.7032C33.6874 49.807 33.251 54.6197 31.0173 54.3026C28.7836 53.9856 30.0411 49.5995 31.8642 49.7032Z" stroke="#030505" stroke-miterlimit="10"/>
<path d="M37.9767 48.4352C37.925 48.4352 38.5767 48.4295 38.7605 49.147C39.1682 50.7436 35.4186 60.3574 39.4036 61.3027C41.6631 61.7292 43.3714 60.4237 44.893 58.4525C44.9131 63.9684 53.4947 60.0174 52.1539 56.8992C51.973 56.7263 49.1508 58.4698 49.5556 56.2479C49.7968 54.9251 51.3845 48.562 50.8303 47.1701C49.2427 44.5217 45.8835 47.4439 45.0796 48.3401C45.0251 48.3401 46.073 48.1067 46.073 48.9165C45.4156 54.4295 44.7638 56.1701 43.1302 56.0174C41.0803 55.8243 44.2183 48.0836 43.4718 46.7868C42.5158 45.1211 38.9844 46.8387 37.9767 48.4352Z" stroke="#030505" stroke-miterlimit="10" stroke-linecap="round"/>
<path d="M94.2951 48.4524C94.2405 48.4524 94.9238 48.4466 95.1162 49.1988C95.5411 50.8731 91.6106 60.9538 95.7909 61.9452C98.1595 62.3918 99.951 61.023 101.547 58.9567C101.567 64.7405 110.568 60.5993 109.161 57.3256C108.969 57.144 106.015 58.9711 106.437 56.6426C106.689 55.2535 108.355 48.582 107.775 47.121C106.109 44.3429 102.587 47.4091 101.743 48.3486C101.685 48.3486 102.785 48.1037 102.785 48.9538C102.096 54.7348 101.412 56.559 99.7013 56.3976C97.5508 56.1959 100.841 48.0806 100.06 46.7175C99.0581 44.9711 95.3545 46.7722 94.2979 48.4466L94.2951 48.4524Z" stroke="#030505" stroke-miterlimit="10" stroke-linecap="round"/>
<path d="M54.9647 39.1843C56.9745 36.9048 59.4407 36.1901 60.391 36.9682C61.2035 37.6339 60.9222 38.7665 60.6379 40.3342C59.8714 44.5561 57.9478 54.2996 58.0741 56.6598C58.4847 58.6051 60.9853 56.3572 61.0801 57.0518C61.0801 60.0172 57.2645 61.3861 56.1505 61.4178C54.5542 61.4639 52.4411 60.0748 52.9895 57.0719C54.0776 51.1094 55.9524 41.8731 55.9524 39.9509C55.9524 38.9509 54.9504 39.2103 54.9619 39.1843H54.9647Z" stroke="#030505" stroke-miterlimit="10" stroke-linecap="round"/>
<path d="M110.875 49.6283C110.657 49.3632 110.68 47.9713 111.024 47.5736C112.916 45.3949 116.617 41.4266 117.148 41.7724C118.03 42.3459 117.433 44.7292 117.148 46.294C117.097 46.5793 118.762 46.2422 119.17 46.5044C119.577 46.7695 119.017 49.8358 118.891 50.0058C118.765 50.1759 116.511 49.7955 116.468 50.0058C115.925 52.686 115.417 54.9857 115.503 56.6226C115.914 58.5678 118.415 56.32 118.509 57.0145C118.509 59.9799 114.694 61.3488 113.58 61.3805C111.983 61.4266 109.87 60.0376 110.419 57.0347C111.507 51.0721 111.814 50.0058 111.814 50.0058C111.814 50.0058 111.09 49.8906 110.875 49.6254V49.6283Z" stroke="#030505" stroke-miterlimit="10" stroke-linecap="round"/>
<path d="M130.669 50.4179C132.193 47.441 127.433 45.4035 124.694 46.2969C121.955 47.1902 121.249 49.5678 121.343 51.2911C121.518 54.5072 127.002 56.6196 125.86 57.7608C123.919 59.7003 122.285 52.9078 120.08 55.634C118.401 57.709 119.517 60.7205 123.02 61.3257C126.523 61.9309 130.06 59.9453 130.109 55.928C130.14 53.1585 127.775 51.8588 126.531 50.8069C125.971 50.3314 125.627 49.7234 125.86 49.3776C126.5 48.4265 127.568 49.9568 128.242 50.4986C128.883 51.0116 129.997 51.732 130.669 50.4208V50.4179Z" stroke="#030505" stroke-miterlimit="10" stroke-linecap="round"/>
</svg>
